# xmcd
#
# Track frame offsets: 
#        150
#        17077
#        39240
#        59290
#
# Disc length: 1044 seconds
#
# Revision: 0
# Processed by: cddbd v1.5.2PL0 Copyright (c) Steve Scherf et al.
# Submitted via: ExactAudioCopy v1.0b1
#
DISCID=27041204
DTITLE=Echo Bass - Gotta Dance With The Music CDM
DYEAR=1995
DGENRE=Eurodance
TTITLE0=Gotta Dance With The Music (Radio Edit)
TTITLE1=Gotta Dance With The Music (Extended Mix)
TTITLE2=Gotta Dance With The Music (Club Mix)
TTITLE3=Gotta Dance With The Music (Tribal Mix)
EXTD=
EXTT0=
EXTT1=
EXTT2=
EXTT3=
PLAYORDER=
